<?xml version="1.0" encoding="UTF-8"?>
<svg version="1.1" xmlns="http://www.w3.org/2000/svg" width="156" height="132">
<path d="M0 0 C6.17472035 -0.02474609 12.34941172 -0.04288192 18.52416992 -0.05493164 C20.62410993 -0.05995581 22.72404646 -0.06677625 24.82397461 -0.07543945 C27.84489809 -0.0875889 30.86577526 -0.09324753 33.88671875 -0.09765625 C34.82335861 -0.10281754 35.75999847 -0.10797882 36.72502136 -0.11329651 C45.32061802 -0.11403383 45.32061802 -0.11403383 49 1 C50.4765625 2.59375 50.4765625 2.59375 51.625 4.5 C53.50296468 7.63123548 53.50296468 7.63123548 57 9 C58.16796875 10.84765625 58.16796875 10.84765625 59.1875 13.0625 C59.53167969 13.79597656 59.87585938 14.52945312 60.23046875 15.28515625 C60.48441406 15.85105469 60.73835938 16.41695312 61 17 C60.505 17.495 60.505 17.495 60 18 C60.639375 18.556875 61.27875 19.11375 61.9375 19.6875 C64.28623364 22.32092863 64.35543631 23.61604065 65 27 C65.89557883 28.39312263 66.79916717 29.78231214 67.7578125 31.1328125 C71.12840238 36.19929665 73.88673891 41.72894738 76.5625 47.1875 C79.04556765 52.04567583 82.01682913 56.58307728 85.125 61.0625 C87.16620735 64.26039151 88.53821155 67.50441893 90 71 C90.7734375 72.2375 90.7734375 72.2375 91.5625 73.5 C95.14744119 79.73468033 95.35762621 84.98549202 94.03125 91.9140625 C92.2796679 97.15553925 89.09124101 101.31788309 85 105 C82.8046875 105.70703125 82.8046875 105.70703125 81 106 C80.67 106.33 80.34 106.66 80 107 C64.80776427 107.98503274 64.80776427 107.98503274 58 104 C58 103.34 58 102.68 58 102 C57.01 101.67 56.02 101.34 55 101 C55 100.01 55 99.02 55 98 C54.01 97.67 53.02 97.34 52 97 C50.61328125 94.78515625 50.61328125 94.78515625 49.3125 92.0625 C48.87550781 91.16660156 48.43851563 90.27070312 47.98828125 89.34765625 C47 87 47 87 47 85 C46.01 84.505 46.01 84.505 45 84 C45 83.01 45 82.02 45 81 C44.01 81 43.02 81 42 81 C41.9175 79.88625 41.835 78.7725 41.75 77.625 C41.5025 76.42875 41.255 75.2325 41 74 C40.3915625 73.73960938 39.783125 73.47921875 39.15625 73.2109375 C35.88129533 71.37174194 35.06642172 68.34478579 33.75 65 C33.481875 64.35804687 33.21375 63.71609375 32.9375 63.0546875 C31 58.32955995 31 58.32955995 31 56 C30.39285156 55.92265625 29.78570312 55.8453125 29.16015625 55.765625 C26.250499 54.73435408 25.80285154 53.47169086 24.4375 50.75 C23.1412293 48.22107924 21.90460022 45.858667 20.3125 43.5 C18.39820713 39.85372787 17.74573089 36.02694679 17 32 C16.34 32 15.68 32 15 32 C14.16180842 30.37750059 13.3295884 28.75191503 12.5 27.125 C12.0359375 26.22007813 11.571875 25.31515625 11.09375 24.3828125 C10 22 10 22 10 20 C9.34 20 8.68 20 8 20 C7.71125 19.38125 7.4225 18.7625 7.125 18.125 C6.06279958 15.86674235 6.06279958 15.86674235 4 14 C3.59952556 11.67724823 3.2602896 9.34260643 3 7 C2.01 6.67 1.02 6.34 0 6 C0 4.02 0 2.04 0 0 Z M21 41 C22 43 22 43 22 43 Z M25 47 C26 49 26 49 26 49 Z M42 77 C43 79 43 79 43 79 Z " fill="#EE1C34" transform="translate(8,14)"/>
<path d="M0 0 C0.99 0.33 1.98 0.66 3 1 C3.17942163 4.94727588 3.09350689 7.5980513 1 11 C1.66 11 2.32 11 3 11 C1.28379115 14.55500405 -0.81012919 17.71519378 -3 21 C-3 20.34 -3 19.68 -3 19 C-3.66 19 -4.32 19 -5 19 C-6.2039337 22.75399798 -6.09877617 26.33217412 -6.0625 30.25 C-6.05347656 31.51328125 -6.04445312 32.7765625 -6.03515625 34.078125 C-6.02355469 35.04234375 -6.01195312 36.0065625 -6 37 C-7.98 37 -9.96 37 -12 37 C-11.67 36.030625 -11.34 35.06125 -11 34.0625 C-9.94826637 31.37850426 -9.94826637 31.37850426 -10 30 C-12.25066242 32.68633594 -12.25066242 32.68633594 -13.375 35.9375 C-14.34152615 39.1270363 -16.59660214 40.76827341 -19 43 C-19.495 43.5775 -19.99 44.155 -20.5 44.75 C-25.7377687 49.11480725 -36.67352498 47.32214702 -43.0625 46.75 C-46 46 -46 46 -47.9375 44.0625 C-49 42 -49 42 -49 40 C-50.32 39.34 -51.64 38.68 -53 38 C-53 36.02 -53 34.04 -53 32 C-53.66 32 -54.32 32 -55 32 C-56.05268874 25.18597425 -55.93833398 19.63198569 -54 13 C-53.34 13 -52.68 13 -52 13 C-51.79375 12.05125 -51.5875 11.1025 -51.375 10.125 C-50 7 -50 7 -47.375 5.75 C-46.26125 5.5025 -45.1475 5.255 -44 5 C-42.78892578 4.66307129 -41.57785156 4.32614258 -40.33007812 3.97900391 C-35.97857868 2.88988277 -31.81443737 2.65514711 -27.34375 2.5859375 C-26.16214294 2.55688828 -26.16214294 2.55688828 -24.95666504 2.5272522 C-22.47121588 2.46806454 -19.98571885 2.42131774 -17.5 2.375 C-15.80206452 2.33676405 -14.10414727 2.29770916 -12.40625 2.2578125 C-8.2709836 2.1624142 -4.13562662 2.07816258 0 2 C0 1.34 0 0.68 0 0 Z M-8 24 C-7 26 -7 26 -7 26 Z M-46 43 C-46 43.66 -46 44.32 -46 45 C-45.34 44.67 -44.68 44.34 -44 44 C-44.66 43.67 -45.32 43.34 -46 43 Z " fill="#198FEF" transform="translate(150,11)"/>
<path d="M0 0 C1.5 1.3125 1.5 1.3125 3 3 C3 3.99 3 4.98 3 6 C3.66 6 4.32 6 5 6 C7.90687361 11.56097561 7.90687361 11.56097561 8.4375 14.0625 C9.26079046 16.89827824 11.15238867 18.73518611 13 21 C13 21.66 13 22.32 13 23 C13.66 23 14.32 23 15 23 C15.99 25.97 16.98 28.94 18 32 C17.34 31.67 16.68 31.34 16 31 C15.26924352 28.6859378 14.59861742 26.35171131 14 24 C13.08927734 23.88398437 13.08927734 23.88398437 12.16015625 23.765625 C9.250499 22.73435408 8.80285154 21.47169086 7.4375 18.75 C6.1412293 16.22107924 4.90460022 13.858667 3.3125 11.5 C1.39820713 7.85372787 0.74573089 4.02694679 0 0 Z M4 9 C5 11 5 11 5 11 Z " fill="#270509" transform="translate(25,46)"/>
<path d="M0 0 C0.99 0.33 1.98 0.66 3 1 C3 2.98 3 4.96 3 7 C2.505 5.515 2.505 5.515 2 4 C-12.52 4.33 -27.04 4.66 -42 5 C-42 4.67 -42 4.34 -42 4 C-37.17656569 3.06266595 -32.43799588 2.79182198 -27.5390625 2.68359375 C-26.74849457 2.66281265 -25.95792664 2.64203156 -25.1434021 2.62062073 C-22.63734983 2.55564418 -20.13119976 2.49648357 -17.625 2.4375 C-15.91795895 2.39426532 -14.21092751 2.35064951 -12.50390625 2.30664062 C-8.33603574 2.2000166 -4.16806761 2.09860559 0 2 C0 1.34 0 0.68 0 0 Z " fill="#186DA8" transform="translate(150,11)"/>
<path d="M0 0 C0.66 0.33 1.32 0.66 2 1 C2 5.62 2 10.24 2 15 C0.02 15 -1.96 15 -4 15 C-3.505 13.6078125 -3.505 13.6078125 -3 12.1875 C-1.85032996 9.07970709 -1.85032996 9.07970709 -2 6 C-1.36893571 3.98848259 -0.70626239 1.98636298 0 0 Z M0 2 C1 4 1 4 1 4 Z " fill="#010204" transform="translate(142,33)"/>
<path d="M0 0 C4.35429183 1.58337885 6.36362735 3.09963832 8.375 7.1875 C8.93479524 8.45045266 9.48274616 9.71903607 10 11 C8.68 11 7.36 11 6 11 C4.55078125 9.35546875 4.55078125 9.35546875 3.3125 7.1875 C2.89613281 6.47980469 2.47976562 5.77210937 2.05078125 5.04296875 C1 3 1 3 0 0 Z " fill="#0F0307" transform="translate(59,20)"/>
<path d="M0 0 C-0.99 0.33 -1.98 0.66 -3 1 C-4.09166275 2.93330603 -4.09166275 2.93330603 -5 5 C-5.66 5.66 -6.32 6.32 -7 7 C-7.99 7 -8.98 7 -10 7 C-9.375 4.125 -9.375 4.125 -8 1 C-2.89361702 -1.44680851 -2.89361702 -1.44680851 0 0 Z " fill="#144B77" transform="translate(108,17)"/>
<path d="M0 0 C0.99 0.33 1.98 0.66 3 1 C3 2.98 3 4.96 3 7 C2.67 6.01 2.34 5.02 2 4 C-3.28 4 -8.56 4 -14 4 C-14 3.67 -14 3.34 -14 3 C-9.38 2.67 -4.76 2.34 0 2 C0 1.34 0 0.68 0 0 Z " fill="#10446A" transform="translate(150,11)"/>
<path d="M0 0 C3.48331435 3.01887244 4.79157144 5.56909529 6 10 C3.13367003 8.94901234 2.16993357 8.33137046 0.75 5.5625 C0 3 0 3 0 0 Z " fill="#210507" transform="translate(43,78)"/>
<path d="M0 0 C0.8125 1.6875 0.8125 1.6875 1 4 C-1.25 6.5625 -1.25 6.5625 -4 9 C-4.8971875 9.8971875 -4.8971875 9.8971875 -5.8125 10.8125 C-6.204375 11.204375 -6.59625 11.59625 -7 12 C-7.33 11.01 -7.66 10.02 -8 9 C-7.0479279 7.99403703 -6.08812654 6.99538437 -5.125 6 C-4.32449219 5.1646875 -4.32449219 5.1646875 -3.5078125 4.3125 C-2 3 -2 3 0 3 C0 2.01 0 1.02 0 0 Z " fill="#081521" transform="translate(135,45)"/>
<path d="M0 0 C1.32 0 2.64 0 4 0 C4 1.32 4 2.64 4 4 C4.66 4.33 5.32 4.66 6 5 C6 5.99 6 6.98 6 8 C5.34 8 4.68 8 4 8 C4 7.34 4 6.68 4 6 C2.68 5.34 1.36 4.68 0 4 C0 2.68 0 1.36 0 0 Z " fill="#0E4571" transform="translate(97,45)"/>
<path d="M0 0 C3.465 1.485 3.465 1.485 7 3 C6.67 3.99 6.34 4.98 6 6 C6.66 6.33 7.32 6.66 8 7 C5 7 5 7 3 6 C3 5.34 3 4.68 3 4 C2.01 3.67 1.02 3.34 0 3 C0 2.01 0 1.02 0 0 Z " fill="#4A0B11" transform="translate(63,112)"/>
<path d="M0 0 C0.33 0 0.66 0 1 0 C1 1.98 1 3.96 1 6 C-0.98 6 -2.96 6 -5 6 C-4.67 5.34 -4.34 4.68 -4 4 C-3.34 4 -2.68 4 -2 4 C-1.34 2.68 -0.68 1.36 0 0 Z " fill="#000000" transform="translate(135,50)"/>
<path d="M0 0 C1.32 0.33 2.64 0.66 4 1 C4.625 2.875 4.625 2.875 5 5 C4.34 5.66 3.68 6.32 3 7 C2.01 4.69 1.02 2.38 0 0 Z " fill="#060101" transform="translate(67,33)"/>
<path d="M0 0 C0.66 0 1.32 0 2 0 C0.79618552 2.49361571 -0.45428722 4.68143083 -2 7 C-2.99 6.01 -3.98 5.02 -5 4 C-4.360625 3.71125 -3.72125 3.4225 -3.0625 3.125 C-0.84793921 2.17176549 -0.84793921 2.17176549 0 0 Z " fill="#010306" transform="translate(151,22)"/>
<path d="M0 0 C2 1 2 1 2 1 Z " fill="#020000" transform="translate(95,116)"/>
<path d="M0 0 C2 1 2 1 2 1 Z " fill="#000000" transform="translate(51,97)"/>
<path d="" fill="#000000" transform="translate(0,0)"/>
<path d="" fill="#000000" transform="translate(0,0)"/>
<path d="" fill="#000000" transform="translate(0,0)"/>
<path d="" fill="#010000" transform="translate(0,0)"/>
<path d="" fill="#010000" transform="translate(0,0)"/>
<path d="" fill="#000002" transform="translate(0,0)"/>
<path d="" fill="#000000" transform="translate(0,0)"/>
<path d="" fill="#000000" transform="translate(0,0)"/>
</svg>
